<mxfile host="app.diagrams.net" modified="2023-04-09T19:06:53.671Z" agent="Mozilla/5.0 (Macintosh; Intel Mac OS X 10_15_7) AppleWebKit/537.36 (KHTML, like Gecko) Chrome/110.0.0.0 Safari/537.36" version="21.1.5" etag="ayihZAJjqK80RD8g2Q4W" type="github">
  <diagram name="Page-1" id="zJcZW7TWtdcWgifZrXub">
    <mxGraphModel>
      <root>
        <mxCell id="0" />
        <mxCell id="1" parent="0" />
      </root>
    </mxGraphModel>
  </diagram>
</mxfile>
